# xmcd CD database file
#
# Track frame offsets:
#	150
#	21198
#	41484
#	61186
#	75827
#	98619
#	118577
#	137883
#	155674
#	175853
#	200690
#	218681
#	238614
#	261414
#	281423
#	301623
#	327391
#
# Disc length: 4692 seconds
#
# Revision: 5
# Processed by: cddbd v1.5.2PL0 Copyright (c) Steve Scherf et al.
# Submitted via: CDex 1.70beta3
#
DISCID=e3125211
DTITLE=DOUBLE - WE R&B 98-08 Disc2
DYEAR=2008
DGENRE=R&B
TTITLE0=Driving All Night
TTITLE1=You Got To
TTITLE2=Who's That Girl
TTITLE3=Kissing You
TTITLE4=Rollin' On
TTITLE5=destiny
TTITLE6=Wonderful
TTITLE7=Souljah
TTITLE8=Okaeri
TTITLE9=ROCK THE PARTY
TTITLE10=Call Me
TTITLE11=Emotions
TTITLE12=SPRING LOVE
TTITLE13=SUMMERTIME feat. VERBAL
TTITLE14=WHY DO YOU GO
TTITLE15=谿九ｊ轣ｫ -eternal BED-
TTITLE16=Midnight Bus
EXTD=YEAR: 2008
EXTT0=
EXTT1=
EXTT2=
EXTT3=
EXTT4=
EXTT5=
EXTT6=
EXTT7=
EXTT8=
EXTT9=
EXTT10=
EXTT11=
EXTT12=
EXTT13=
EXTT14=
EXTT15=
EXTT16=
PLAYORDER=
